<?xml version="1.0" standalone="no"?>
<!DOCTYPE svg PUBLIC "-//W3C//DTD SVG 20010904//EN"
 "http://www.w3.org/TR/2001/REC-SVG-20010904/DTD/svg10.dtd">
<svg version="1.0" xmlns="http://www.w3.org/2000/svg"
 width="500.000000pt" height="500.000000pt" viewBox="0 0 500.000000 500.000000"
 preserveAspectRatio="xMidYMid meet">
<metadata>
Created by potrace 1.16, written by Peter Selinger 2001-2019
</metadata>
<g transform="translate(0.000000,500.000000) scale(0.100000,-0.100000)"
fill="#000000" stroke="none">
<path d="M1212 3718 c-8 -8 -12 -67 -12 -200 l0 -188 55 0 55 0 0 145 0 145
1190 0 1190 0 0 -221 0 -220 53 3 52 3 3 259 c2 182 -1 263 -9 272 -16 19
-2558 21 -2577 2z"/>
<path d="M1940 3449 c-118 -12 -373 -82 -531 -145 l-144 -57 -199 -13 c-212
-14 -300 -27 -322 -45 -18 -15 -18 -60 0 -84 12 -16 9 -28 -22 -92 -46 -98
-48 -174 -6 -258 l29 -57 -27 -19 c-17 -12 -25 -26 -21 -35 5 -15 102 -67 173
-94 19 -7 53 -30 75 -50 22 -21 60 -52 84 -69 l44 -31 -129 -1 c-71 0 -149 -4
-174 -8 l-45 -8 39 -8 c22 -4 658 -8 1415 -9 1144 -1 1494 2 1816 14 l20 1
-20 8 c-11 4 -87 9 -170 10 -82 2 -151 4 -152 5 -1 1 22 14 51 29 50 26 60 27
198 27 208 0 368 31 384 75 3 8 -3 30 -15 48 -27 44 -26 64 4 133 29 66 31 86
9 119 -24 36 -149 128 -229 168 -67 33 -193 74 -300 97 -91 20 -357 40 -517
39 l-156 -1 -214 106 c-302 149 -406 180 -688 205 -127 12 -151 12 -260 0z
m230 -58 c34 -11 90 -36 124 -57 68 -42 211 -150 240 -183 19 -21 19 -21 -8
-21 -16 0 -47 17 -81 45 -81 65 -192 138 -255 165 -89 40 -216 34 -455 -19
-175 -40 -246 -60 -205 -60 8 0 44 6 80 14 105 23 110 22 110 -25 0 -22 -3
-40 -7 -40 -5 0 -46 7 -93 15 -47 8 -121 15 -165 15 -74 1 -78 2 -50 14 59 25
371 119 455 137 116 24 232 24 310 0z m-656 -191 c224 -29 204 -19 199 -98 -6
-89 -7 -92 -45 -92 -52 0 -108 -19 -135 -46 -21 -21 -24 -31 -18 -62 16 -86
93 -186 165 -215 45 -19 100 -24 460 -42 344 -17 408 -23 417 -38 6 -11 -769
-3 -969 10 l-96 6 -7 56 c-4 31 -10 61 -15 66 -4 6 -13 27 -19 47 -16 48 -90
131 -148 164 -84 50 -223 41 -307 -19 -19 -13 -27 -16 -24 -6 7 21 91 60 150
70 l53 8 -52 -3 c-64 -4 -156 -48 -189 -92 -24 -31 -31 -50 -16 -40 5 3 -4
-20 -20 -51 -16 -32 -28 -72 -28 -94 0 -21 -4 -40 -10 -44 -14 -8 -88 90 -101
135 -10 34 -9 46 12 97 25 60 32 172 15 220 -7 18 -4 22 21 26 219 43 307 53
458 56 50 0 162 -8 249 -19z m513 -80 c62 -6 213 -15 335 -18 l223 -7 18 -54
c10 -29 16 -55 15 -56 -2 -1 -37 4 -78 12 -44 8 -179 16 -330 20 l-255 6 -31
33 c-26 27 -39 34 -70 34 -48 0 -60 -7 -73 -43 -7 -17 -18 -27 -31 -27 -17 0
-20 6 -20 44 0 24 3 57 6 73 l6 30 86 -18 c48 -9 138 -22 199 -29z m1123 -20
c268 -6 395 -13 445 -24 180 -39 301 -92 429 -188 43 -32 81 -56 84 -53 3 3
-19 29 -49 58 -57 56 -171 123 -273 162 -79 31 -60 31 45 1 144 -42 322 -140
398 -219 32 -33 33 -37 21 -71 -6 -20 -18 -36 -26 -36 -56 0 -213 -24 -230
-35 -11 -7 -28 -34 -38 -59 -18 -47 -46 -62 -46 -26 0 35 26 75 68 104 34 23
54 28 146 36 59 4 110 11 113 14 14 13 -35 18 -145 14 -113 -4 -119 -5 -150
-33 -39 -34 -72 -127 -56 -153 15 -24 69 -41 132 -41 44 -1 52 -4 52 -20 0
-15 -12 -20 -72 -29 -91 -14 -353 -26 -367 -18 -6 4 -5 21 5 49 23 63 22 191
-2 256 -21 59 -85 138 -140 172 -46 28 -36 38 11 10 20 -11 33 -16 29 -10 -3
6 -34 24 -68 40 -51 24 -74 29 -138 29 -91 0 -154 -20 -227 -74 -46 -34 -54
-36 -127 -37 -58 -1 -71 -3 -49 -9 49 -13 140 -11 155 3 8 7 7 1 -3 -13 -40
-60 -59 -105 -70 -175 l-12 -75 -66 0 -67 0 -25 83 c-40 125 -103 210 -174
231 -16 5 -24 19 -32 57 -6 28 -16 59 -21 70 -13 23 -25 23 540 9z m-704 -138
c61 -11 126 -27 146 -35 33 -14 35 -17 41 -77 4 -35 6 -65 4 -67 -2 -1 -48 1
-103 7 -111 10 -444 23 -429 16 6 -3 89 -14 185 -26 164 -20 257 -33 323 -46
20 -4 27 -11 27 -29 0 -13 -4 -26 -9 -30 -6 -3 -173 -1 -373 5 l-363 10 -25
30 c-54 62 -142 232 -128 245 30 31 529 28 704 -3z m-708 -60 c12 -32 44 -92
72 -132 27 -41 48 -76 46 -77 -9 -9 -116 21 -148 42 -43 28 -88 108 -88 154 0
25 7 34 38 50 20 11 42 20 47 21 6 0 20 -26 33 -58z m-470 -21 c48 -25 76 -55
101 -111 54 -119 -11 -260 -135 -296 -49 -14 -59 -14 -107 0 -88 26 -157 115
-157 204 0 85 55 177 125 208 45 20 129 17 173 -5z m977 -316 c259 -13 535
-27 615 -31 80 -3 152 -11 160 -16 16 -10 -223 -6 -906 14 l-401 11 -35 -21
c-30 -18 -50 -22 -126 -22 -91 0 -92 0 -82 23 5 12 11 35 15 51 l6 29 142 -7
c78 -4 353 -18 612 -31z m920 -136 c19 -19 4 -19 -795 -19 l-815 0 40 24 39
24 756 -5 c722 -5 756 -6 775 -24z"/>
<path d="M1025 3176 c-130 -15 -224 -36 -190 -44 11 -2 58 2 105 9 60 10 157
13 328 11 137 -1 242 1 242 6 0 24 -324 35 -485 18z"/>
<path d="M3605 3011 c8 -15 134 -96 191 -125 62 -31 190 -52 210 -35 10 8 11
15 4 24 -22 26 -168 104 -234 124 -69 21 -182 29 -171 12z"/>
<path d="M1110 2868 c-119 -64 -147 -223 -57 -325 115 -130 317 -41 317 140 0
146 -142 247 -260 185z"/>
<path d="M408 2172 l82 -77 0 -52 c0 -50 1 -53 25 -53 24 0 25 3 25 59 l0 58
73 63 c39 34 74 67 75 71 2 5 -12 9 -31 9 -28 0 -46 -10 -91 -50 l-55 -51 -56
51 c-46 42 -61 50 -93 50 l-37 -1 83 -77z"/>
<path d="M710 2142 c0 -100 2 -110 23 -130 21 -20 34 -22 134 -22 109 0 112 1
132 26 18 23 21 41 21 130 l0 104 -25 0 c-25 0 -25 -1 -25 -92 0 -51 -4 -100
-10 -108 -11 -18 -133 -26 -172 -11 -28 10 -28 11 -28 111 l0 100 -25 0 -25 0
0 -108z"/>
<path d="M1083 2227 c-27 -21 -32 -81 -9 -112 12 -16 28 -19 126 -19 92 -1
115 -4 123 -17 6 -9 7 -24 4 -33 -6 -15 -19 -17 -104 -13 -54 3 -113 8 -130
12 -37 8 -41 0 -17 -33 14 -21 23 -22 133 -22 102 0 120 3 134 18 20 22 23 92
5 110 -8 8 -48 12 -114 12 -107 0 -130 9 -122 47 3 16 16 18 102 21 59 2 103
-1 110 -8 14 -14 36 -12 36 3 0 34 -33 45 -144 49 -94 3 -113 0 -133 -15z"/>
<path d="M4015 2239 c-38 -22 -45 -41 -45 -126 0 -117 7 -123 146 -123 58 0
114 5 124 10 27 15 46 81 31 109 -10 18 -20 21 -81 21 -68 0 -70 -1 -70 -25 0
-24 3 -25 55 -25 59 0 68 -10 33 -34 -26 -18 -138 -22 -169 -6 -16 9 -19 22
-19 73 0 36 5 68 12 75 7 7 42 12 88 12 64 0 80 -3 95 -20 10 -11 28 -20 40
-20 18 0 21 4 18 24 -10 49 -37 61 -142 64 -58 1 -104 -2 -116 -9z"/>
<path d="M4385 2123 l-85 -128 27 -3 c20 -3 33 3 48 22 20 25 26 26 111 26 86
0 91 -1 104 -25 10 -19 21 -25 47 -25 l33 0 -87 130 c-47 72 -92 130 -99 130
-8 0 -52 -57 -99 -127z"/>
<path d="M1430 2115 c0 -118 1 -125 20 -125 17 0 20 7 20 45 l0 46 108 -3 107
-3 3 -42 c3 -35 7 -43 23 -43 15 0 19 7 19 36 0 19 -4 44 -10 54 -6 12 -6 28
1 49 13 36 6 72 -17 95 -12 13 -41 16 -145 16 l-129 0 0 -125z m255 45 l0 -35
-107 -3 -108 -3 0 41 0 41 108 -3 107 -3 0 -35z"/>
<path d="M1900 2115 l0 -125 115 0 c108 0 115 1 115 20 0 19 -7 20 -95 20
l-95 0 0 105 c0 98 -1 105 -20 105 -19 0 -20 -7 -20 -125z"/>
<path d="M2180 2115 c0 -118 1 -125 20 -125 17 0 20 7 20 45 l0 45 103 0 c117
0 142 11 153 64 6 34 -8 73 -30 88 -6 4 -68 8 -138 8 l-128 0 0 -125z m255 45
l0 -35 -107 -3 -108 -3 0 41 0 41 108 -3 107 -3 0 -35z"/>
<path d="M2540 2115 c0 -118 1 -125 20 -125 17 0 20 7 20 45 l0 46 108 -3 107
-3 3 -42 c3 -35 7 -43 23 -43 15 0 19 7 19 36 0 19 -4 44 -10 54 -6 12 -6 28
1 49 13 36 6 72 -17 95 -12 13 -41 16 -145 16 l-129 0 0 -125z m255 45 l0 -35
-107 -3 -108 -3 0 41 0 41 108 -3 107 -3 0 -35z"/>
<path d="M3028 2223 c-8 -10 -47 -66 -87 -125 -65 -99 -69 -108 -48 -108 15 0
29 10 40 30 18 30 18 30 112 30 93 0 95 0 117 -30 18 -25 58 -42 58 -25 0 12
-161 245 -169 245 -4 0 -15 -8 -23 -17z"/>
<path d="M3310 2180 c36 -32 68 -59 73 -60 4 0 7 -29 7 -65 0 -58 2 -65 20
-65 18 0 20 7 20 59 l0 59 74 63 c68 59 73 64 49 67 -18 3 -40 -10 -82 -47
l-58 -50 -56 50 c-39 34 -64 49 -84 49 -27 0 -25 -3 37 -60z"/>
<path d="M3645 2215 c-22 -21 -25 -33 -25 -98 0 -113 10 -121 146 -124 99 -2
111 0 131 19 20 19 23 31 23 105 0 117 -7 123 -145 123 -99 0 -107 -2 -130
-25z m220 -100 l0 -80 -88 -3 c-57 -2 -94 1 -103 9 -15 12 -21 139 -7 153 4 4
50 5 103 4 l95 -3 0 -80z"/>
<path d="M1200 1762 c0 -72 3 -92 18 -105 15 -14 1251 -387 1282 -387 31 0
1267 373 1283 388 14 12 17 32 17 104 l0 88 -55 0 -55 0 0 -57 0 -58 -595
-176 -595 -177 -595 177 -595 176 0 58 0 57 -55 0 -55 0 0 -88z"/>
</g>
</svg>
